<svg xmlns="http://www.w3.org/2000/svg" viewBox="0 0 340 600" role="img" aria-label="SUZAKU Neo 2 正面">
<defs>
<linearGradient id="framefneo2" x1="0" y1="0" x2="0" y2="1">
  <stop offset="0" stop-color="#96969a"/>
  <stop offset="0.12" stop-color="#13131a"/>
  <stop offset="0.5" stop-color="#09090c"/>
  <stop offset="0.88" stop-color="#121218"/>
  <stop offset="1" stop-color="#68686d"/>
</linearGradient>
<linearGradient id="scrfneo2" x1="0" y1="0" x2="0.8" y2="1">
  <stop offset="0" stop-color="#171722"/>
  <stop offset="0.5" stop-color="#0d0d14"/>
  <stop offset="1" stop-color="#07070c"/>
</linearGradient>
<radialGradient id="flarefneo2" cx="0.5" cy="0.32" r="0.85">
  <stop offset="0" stop-color="#ff8a3d" stop-opacity="0.3"/>
  <stop offset="0.55" stop-color="#ff8a3d" stop-opacity="0.09"/>
  <stop offset="1" stop-color="#ff8a3d" stop-opacity="0"/>
</radialGradient>
<filter id="softfneo2" x="-40%" y="-40%" width="180%" height="180%">
  <feGaussianBlur stdDeviation="7"/>
</filter>
<filter id="fzf" x="-60%" y="-60%" width="220%" height="220%"><feGaussianBlur stdDeviation="5"/></filter>
<clipPath id="clipfneo2"><rect x="54" y="41" width="232" height="518" rx="37"/></clipPath>
</defs>
<ellipse cx="170" cy="577" rx="116" ry="13" fill="#000000" opacity="0.4" filter="url(#softfneo2)"/>
<rect x="43" y="30" width="254" height="540" rx="47" fill="url(#framefneo2)"/>
<rect x="48" y="35" width="244" height="530" rx="42" fill="#06060a"/>
<rect x="54" y="41" width="232" height="518" rx="37" fill="url(#scrfneo2)"/>
<g clip-path="url(#clipfneo2)">
<ellipse cx="170" cy="210" rx="180" ry="200" fill="url(#flarefneo2)"/>

<text x="66" y="118" font-family="'Noto Sans JP',sans-serif" font-size="10" fill="#9c9cb0" letter-spacing="5">GAME SPACE</text>
<text x="66" y="188" font-family="'Noto Sans JP',sans-serif" font-size="58" font-weight="900" fill="#ffffff">144</text>
<text x="66" y="212" font-family="'Noto Sans JP',sans-serif" font-size="10" fill="#ff8a3d" letter-spacing="4">FPS ・ 安定率 99.1%</text>
<path d="M62 318 H278" stroke="#ffffff" stroke-opacity="0.14" stroke-width="1"/>
<rect x="66" y="260" width="12" height="58" rx="3" fill="#ff8a3d" opacity="0.85"/><rect x="86" y="244" width="12" height="74" rx="3" fill="#ff8a3d" opacity="0.79"/><rect x="106" y="252" width="12" height="66" rx="3" fill="#ff8a3d" opacity="0.74"/><rect x="126" y="236" width="12" height="82" rx="3" fill="#ff8a3d" opacity="0.68"/><rect x="146" y="248" width="12" height="70" rx="3" fill="#ff8a3d" opacity="0.63"/><rect x="166" y="230" width="12" height="88" rx="3" fill="#ff8a3d" opacity="0.57"/><rect x="186" y="242" width="12" height="76" rx="3" fill="#ff8a3d" opacity="0.52"/><rect x="206" y="256" width="12" height="62" rx="3" fill="#ff8a3d" opacity="0.46"/><rect x="226" y="246" width="12" height="72" rx="3" fill="#ff8a3d" opacity="0.41"/><rect x="246" y="260" width="12" height="58" rx="3" fill="#ff8a3d" opacity="0.35"/><rect x="266" y="252" width="12" height="66" rx="3" fill="#ff8a3d" opacity="0.30"/>
<text x="66" y="352" font-family="'Noto Sans JP',sans-serif" font-size="9" fill="#9c9cb0" letter-spacing="2">フレームタイム(直近60秒)</text>
<rect x="66" y="392" width="204" height="44" rx="12" fill="#ffffff" opacity="0.07"/>
<text x="82" y="412" font-family="'Noto Sans JP',sans-serif" font-size="9.5" font-weight="700" fill="#ececf2">冷却ブースト ON</text>
<text x="82" y="428" font-family="'Noto Sans JP',sans-serif" font-size="8.5" fill="#9c9cb0">旋風ファン 22,000rpm</text>
<rect x="66" y="452" width="204" height="44" rx="12" fill="#ffffff" opacity="0.05"/>
<text x="82" y="472" font-family="'Noto Sans JP',sans-serif" font-size="9.5" font-weight="700" fill="#ececf2">通知ブロック ON</text>
<text x="82" y="488" font-family="'Noto Sans JP',sans-serif" font-size="8.5" fill="#9c9cb0">プレイ中の割り込みを遮断</text>

<text x="70" y="72" font-family="'Noto Sans JP',sans-serif" font-size="11" font-weight="700" fill="#e6e6ee">12:34</text>
<rect x="222" y="70.0" width="3.5" height="5.0" rx="1" fill="#c9c9d6" opacity="0.55"/><rect x="228" y="67.5" width="3.5" height="7.5" rx="1" fill="#c9c9d6" opacity="0.7000000000000001"/><rect x="234" y="65.0" width="3.5" height="10.0" rx="1" fill="#c9c9d6" opacity="0.8500000000000001"/>
<rect x="248" y="61.5" width="20" height="10" rx="3" fill="none" stroke="#c9c9d6" stroke-width="1.3"/>
<rect x="250" y="63.5" width="13" height="6" rx="1.5" fill="#ff8a3d"/>
<rect x="268.6" y="64" width="2.4" height="5" rx="1" fill="#c9c9d6"/>

<rect x="125" y="544" width="90" height="4.5" rx="2.25" fill="#ffffff" opacity="0.55"/>
<path d="M54 41 L206 41 L84 559 L54 559 Z" fill="#ffffff" opacity="0.035"/>
</g>
<rect x="54.8" y="41.8" width="230.4" height="516.4" rx="37" fill="none" stroke="#ffffff" stroke-opacity="0.08" stroke-width="1.4"/>
<rect x="292.5" y="140" width="5" height="46" rx="2.5" fill="#09090c"/>
<rect x="292.5" y="200" width="5" height="70" rx="2.5" fill="#09090c"/>
</svg>