<svg xmlns="http://www.w3.org/2000/svg" viewBox="0 0 640 480" role="img" aria-label="SUZAKU Pad 2">
<defs>
<linearGradient id="scrpad20" x1="0" y1="0" x2="1" y2="1">
  <stop offset="0" stop-color="#1b1b26"/>
  <stop offset="0.45" stop-color="#e8442e" stop-opacity="0.34"/>
  <stop offset="1" stop-color="#07070b"/>
</linearGradient>
<radialGradient id="flarepad20" cx="0.5" cy="0.35" r="0.75">
  <stop offset="0" stop-color="#e8442e" stop-opacity="0.42"/>
  <stop offset="0.55" stop-color="#e8442e" stop-opacity="0.12"/>
  <stop offset="1" stop-color="#e8442e" stop-opacity="0"/>
</radialGradient>
<linearGradient id="metalpad20" x1="0" y1="0" x2="0" y2="1">
  <stop offset="0" stop-color="#ffffff" stop-opacity="0.22"/>
  <stop offset="0.5" stop-color="#ffffff" stop-opacity="0.04"/>
  <stop offset="1" stop-color="#000000" stop-opacity="0.25"/>
</linearGradient>
</defs>
<rect x="40" y="30" width="560" height="420" rx="30" fill="#16161e"/>
<rect x="40" y="30" width="560" height="420" rx="30" fill="url(#metalpad20)"/>
<rect x="40.8" y="30.8" width="558.4" height="418.4" rx="29.2" fill="none" stroke="#e8442e" stroke-opacity="0.5" stroke-width="1.6"/>
<rect x="54" y="44" width="532" height="392" rx="20" fill="url(#scrpad20)"/>
<ellipse cx="320" cy="195" rx="190" ry="115" fill="url(#flarepad20)"/>
<circle cx="320" cy="58" r="4.5" fill="#050508" stroke="#33333f" stroke-width="1.5"/>
<text x="76" y="72" font-family="'Noto Sans JP',sans-serif" font-size="13" font-weight="700" fill="#e6e6ee">12:34</text>
<rect x="536" y="59" width="19" height="9.5" rx="3.5" fill="none" stroke="#c9c9d6" stroke-width="1.4"/>
<rect x="538" y="61" width="11" height="5.5" rx="1.5" fill="#e8442e"/>
<path d="M320 122 c-8 34 -42 48 -42 84 a42 42 0 0 0 84 0 c0 -36 -34 -50 -42 -84z" fill="none" stroke="#e8442e" stroke-width="4.5" stroke-linejoin="round"/>
<circle cx="320" cy="212" r="10" fill="#e8442e"/>
<text x="320" y="288" font-family="'Noto Sans JP',sans-serif" font-size="24" font-weight="800" fill="#f4f4f8" text-anchor="middle" letter-spacing="2">SUZAKU Pad 2</text>
<text x="320" y="312" font-family="'Noto Sans JP',sans-serif" font-size="12" fill="#9c9cb0" text-anchor="middle" letter-spacing="4">朱雀 Pad 2</text>

<rect x="252" y="392" width="136" height="26" rx="13" fill="#07070b" stroke="#e8442e" stroke-opacity="0.65" stroke-width="1.4"/>
<circle cx="270" cy="405" r="4.5" fill="#e8442e"/>
<text x="328" y="409.5" font-family="'Noto Sans JP',sans-serif" font-size="12" font-weight="700" fill="#ececf2" text-anchor="middle" letter-spacing="1">165Hz 陣</text>
<path d="M70 44 L360 44 L150 436 L54 436 L54 300 Z" fill="#ffffff" opacity="0.035"/>
</svg>