<svg xmlns="http://www.w3.org/2000/svg" viewBox="0 0 640 480" role="img" aria-label="SUZAKU Pad Neo 正面">
<defs>
<linearGradient id="framefpadneo" x1="0" y1="0" x2="0" y2="1">
  <stop offset="0" stop-color="#96969a"/>
  <stop offset="0.12" stop-color="#13131a"/>
  <stop offset="0.5" stop-color="#09090c"/>
  <stop offset="0.88" stop-color="#121218"/>
  <stop offset="1" stop-color="#68686d"/>
</linearGradient>
<linearGradient id="scrfpadneo" x1="0" y1="0" x2="0.8" y2="1">
  <stop offset="0" stop-color="#171722"/>
  <stop offset="0.5" stop-color="#0d0d14"/>
  <stop offset="1" stop-color="#07070c"/>
</linearGradient>
<radialGradient id="flarefpadneo" cx="0.5" cy="0.35" r="0.85">
  <stop offset="0" stop-color="#ff8a3d" stop-opacity="0.28"/>
  <stop offset="0.55" stop-color="#ff8a3d" stop-opacity="0.08"/>
  <stop offset="1" stop-color="#ff8a3d" stop-opacity="0"/>
</radialGradient>
<filter id="softfpadneo" x="-40%" y="-40%" width="180%" height="180%">
  <feGaussianBlur stdDeviation="7"/>
</filter>
<clipPath id="clipfpadneo"><rect x="58" y="44" width="524" height="388" rx="22"/></clipPath>
</defs>
<ellipse cx="320" cy="459" rx="216" ry="11" fill="#000000" opacity="0.4" filter="url(#softfpadneo)"/>
<rect x="36" y="22" width="568" height="428" rx="35" fill="url(#framefpadneo)"/>
<rect x="42" y="28" width="556" height="416" rx="30" fill="#06060a"/>
<rect x="58" y="44" width="524" height="388" rx="22" fill="url(#scrfpadneo)"/>
<g clip-path="url(#clipfpadneo)">
<ellipse cx="320" cy="200" rx="300" ry="180" fill="url(#flarefpadneo)"/>

<text x="210" y="122" font-family="'Noto Sans JP',sans-serif" font-size="10" fill="#9c9cb0" text-anchor="middle" letter-spacing="6">GAME SPACE</text>
<circle cx="210" cy="240" r="62" fill="none" stroke="#ffffff" stroke-opacity="0.08" stroke-width="9"/>
<circle cx="210" cy="240" r="62" fill="none" stroke="#ff8a3d" stroke-width="9" stroke-linecap="round"
  stroke-dasharray="312 390" transform="rotate(-90 210 240)"/>
<text x="210" y="252" font-family="'Noto Sans JP',sans-serif" font-size="42" font-weight="900" fill="#ffffff" text-anchor="middle">144</text>
<text x="210" y="278" font-family="'Noto Sans JP',sans-serif" font-size="10" fill="#ff8a3d" text-anchor="middle" letter-spacing="5">FPS</text>
<text x="210" y="342" font-family="'Noto Sans JP',sans-serif" font-size="9" fill="#9c9cb0" text-anchor="middle" letter-spacing="3">フレーム安定率 99.2%</text>
<text x="368" y="170" font-family="'Noto Sans JP',sans-serif" font-size="11" font-weight="700" fill="#9c9cb0">GPU</text><rect x="410" y="161" width="150" height="10" rx="3" fill="#ffffff" opacity="0.08"/><rect x="410" y="161" width="126" height="10" rx="3" fill="#ff8a3d" opacity="0.95"/><text x="368" y="214" font-family="'Noto Sans JP',sans-serif" font-size="11" font-weight="700" fill="#9c9cb0">CPU</text><rect x="410" y="205" width="150" height="10" rx="3" fill="#ffffff" opacity="0.08"/><rect x="410" y="205" width="93" height="10" rx="3" fill="#ff8a3d" opacity="0.77"/><text x="368" y="258" font-family="'Noto Sans JP',sans-serif" font-size="11" font-weight="700" fill="#9c9cb0">温度</text><rect x="410" y="249" width="150" height="10" rx="3" fill="#ffffff" opacity="0.08"/><rect x="410" y="249" width="54" height="10" rx="3" fill="#ff8a3d" opacity="0.59"/>
<rect x="368" y="300" width="192" height="46" rx="12" fill="#ffffff" opacity="0.05"/>
<text x="380" y="320" font-family="'Noto Sans JP',sans-serif" font-size="9.5" font-weight="700" fill="#ececf2">旋風ファン 21,000rpm</text>
<text x="380" y="336" font-family="'Noto Sans JP',sans-serif" font-size="8.5" fill="#9c9cb0">表面温度 38.2℃ ・ 静音モード</text>
<text x="78" y="74" font-family="'Noto Sans JP',sans-serif" font-size="11" font-weight="700" fill="#e6e6ee">12:34</text>
<rect x="536" y="63.5" width="20" height="10" rx="3" fill="none" stroke="#c9c9d6" stroke-width="1.3"/>
<rect x="538" y="65.5" width="13" height="6" rx="1.5" fill="#ff8a3d"/>
<rect x="556.6" y="66" width="2.4" height="5" rx="1" fill="#c9c9d6"/>
<rect x="275" y="418" width="90" height="4.5" rx="2.25" fill="#ffffff" opacity="0.5"/>
<path d="M58 44 L300 44 L120 432 L58 432 Z" fill="#ffffff" opacity="0.035"/>
</g>
<rect x="58.8" y="44.8" width="522.4" height="386.4" rx="21.4" fill="none" stroke="#ffffff" stroke-opacity="0.08" stroke-width="1.4"/>
<circle cx="320" cy="36" r="4" fill="#04040a" stroke="#2a2a36" stroke-width="1.2"/>
</svg>