<svg xmlns="http://www.w3.org/2000/svg" viewBox="0 0 480 360" role="img" aria-label=""><defs>
<radialGradient id="agpowerbankff2d78141019nte" cx="0.5" cy="0.4" r="0.8">
  <stop offset="0" stop-color="#ff2d78" stop-opacity="0.7"/>
  <stop offset="0.55" stop-color="#ff2d78" stop-opacity="0.16"/>
  <stop offset="1" stop-color="#ff2d78" stop-opacity="0"/>
</radialGradient>
<linearGradient id="alpowerbankff2d78141019nte" x1="0" y1="0" x2="1" y2="0">
  <stop offset="0" stop-color="#ff2d78" stop-opacity="0"/>
  <stop offset="0.5" stop-color="#ff2d78"/>
  <stop offset="1" stop-color="#ff2d78" stop-opacity="0"/>
</linearGradient>
<linearGradient id="mbpowerbankff2d78141019nte" x1="0" y1="0" x2="0.85" y2="1">
  <stop offset="0" stop-color="#727075"/>
  <stop offset="0.3" stop-color="#353139"/>
  <stop offset="0.65" stop-color="#141019"/>
  <stop offset="1" stop-color="#0c0a0f"/>
</linearGradient>
<linearGradient id="mtpowerbankff2d78141019nte" x1="0" y1="0" x2="0" y2="1">
  <stop offset="0" stop-color="#ffffff" stop-opacity="0.3"/>
  <stop offset="0.4" stop-color="#ffffff" stop-opacity="0.05"/>
  <stop offset="1" stop-color="#000000" stop-opacity="0.3"/>
</linearGradient>
<radialGradient id="glpowerbankff2d78141019nte" cx="0.38" cy="0.32" r="0.95">
  <stop offset="0" stop-color="#39414f"/>
  <stop offset="0.4" stop-color="#12151d"/>
  <stop offset="1" stop-color="#04040a"/>
</radialGradient>
<filter id="fzpowerbankff2d78141019nte" x="-60%" y="-60%" width="220%" height="220%"><feGaussianBlur stdDeviation="6"/></filter>
</defs>
<rect width="480" height="360" fill="#0b0b10"/>
<path d="M40 0 V360" stroke="#ffffff" stroke-opacity="0.03"/><path d="M80 0 V360" stroke="#ffffff" stroke-opacity="0.03"/><path d="M120 0 V360" stroke="#ffffff" stroke-opacity="0.03"/><path d="M160 0 V360" stroke="#ffffff" stroke-opacity="0.03"/><path d="M200 0 V360" stroke="#ffffff" stroke-opacity="0.03"/><path d="M240 0 V360" stroke="#ffffff" stroke-opacity="0.03"/><path d="M280 0 V360" stroke="#ffffff" stroke-opacity="0.03"/><path d="M320 0 V360" stroke="#ffffff" stroke-opacity="0.03"/><path d="M360 0 V360" stroke="#ffffff" stroke-opacity="0.03"/><path d="M400 0 V360" stroke="#ffffff" stroke-opacity="0.03"/><path d="M440 0 V360" stroke="#ffffff" stroke-opacity="0.03"/><path d="M0 40 H480" stroke="#ffffff" stroke-opacity="0.03"/><path d="M0 80 H480" stroke="#ffffff" stroke-opacity="0.03"/><path d="M0 120 H480" stroke="#ffffff" stroke-opacity="0.03"/><path d="M0 160 H480" stroke="#ffffff" stroke-opacity="0.03"/><path d="M0 200 H480" stroke="#ffffff" stroke-opacity="0.03"/><path d="M0 240 H480" stroke="#ffffff" stroke-opacity="0.03"/><path d="M0 280 H480" stroke="#ffffff" stroke-opacity="0.03"/><path d="M0 320 H480" stroke="#ffffff" stroke-opacity="0.03"/>
<ellipse cx="240" cy="176" rx="225" ry="145" fill="url(#agpowerbankff2d78141019nte)"/><ellipse cx="240" cy="302" rx="120" ry="10" fill="#000" opacity="0.45" filter="url(#fzpowerbankff2d78141019nte)"/>
<rect x="140" y="72" width="200" height="216" rx="30" fill="url(#mbpowerbankff2d78141019nte)"/>
<rect x="140" y="72" width="200" height="216" rx="30" fill="url(#mtpowerbankff2d78141019nte)"/>
<rect x="141.4" y="73.4" width="197.2" height="213.2" rx="28.6" fill="none" stroke="#ffffff" stroke-opacity="0.14" stroke-width="1.8"/>
<circle cx="240" cy="150" r="66" fill="none" stroke="#565359" stroke-width="2" stroke-dasharray="7 7" opacity="0.9"/>
<path d="M190 128 h100 v44 h-100 z" fill="none" stroke="#ff2d78" stroke-width="2.5" opacity="0.9"/><path d="M204 172 v14 M240 172 v20 M276 172 v14" stroke="#ff2d78" stroke-width="2.5" opacity="0.7"/><text x="240" y="157" font-family="sans-serif" font-size="15" font-weight="800" fill="#ff2d78" text-anchor="middle" letter-spacing="4">NEON</text>
<circle cx="204" cy="238" r="5" fill="#ff2d78" opacity="0.95"/><circle cx="228" cy="238" r="5" fill="#ff2d78" opacity="0.73"/><circle cx="252" cy="238" r="5" fill="#ff2d78" opacity="0.51"/><circle cx="276" cy="238" r="5" fill="#ff2d78" opacity="0.29"/>
<rect x="286" y="230" width="34" height="16" rx="8" fill="#07070b" stroke="#5a585e" stroke-width="1.4"/>
<rect x="222" y="286" width="36" height="9" rx="4.5" fill="#07070b" stroke="#5a585e" stroke-width="1.4"/>
<text x="240" y="270" font-family="sans-serif" font-size="12" font-weight="800" fill="#e9e9f2" opacity="0.75" text-anchor="middle" letter-spacing="2">10000mAh ・ 45W</text>
<text x="240" y="330" font-family="sans-serif" font-size="10" fill="#9c9cb0" text-anchor="middle" letter-spacing="3">MAGNETIC WIRELESS</text></svg>