<svg xmlns="http://www.w3.org/2000/svg" viewBox="0 0 340 600" role="img" aria-label="SUZAKU 4 × エンドフィールド 開拓 Edition 正面">
<defs>
<linearGradient id="framefsuzaku4endfield" x1="0" y1="0" x2="0" y2="1">
  <stop offset="0" stop-color="#cab594"/>
  <stop offset="0.12" stop-color="#754c0f"/>
  <stop offset="0.5" stop-color="#372407"/>
  <stop offset="0.88" stop-color="#6e480e"/>
  <stop offset="1" stop-color="#b39465"/>
</linearGradient>
<linearGradient id="scrfsuzaku4endfield" x1="0" y1="0" x2="0.8" y2="1">
  <stop offset="0" stop-color="#171722"/>
  <stop offset="0.5" stop-color="#0d0d14"/>
  <stop offset="1" stop-color="#07070c"/>
</linearGradient>
<radialGradient id="flarefsuzaku4endfield" cx="0.5" cy="0.32" r="0.85">
  <stop offset="0" stop-color="#ff7a1a" stop-opacity="0.3"/>
  <stop offset="0.55" stop-color="#ff7a1a" stop-opacity="0.09"/>
  <stop offset="1" stop-color="#ff7a1a" stop-opacity="0"/>
</radialGradient>
<filter id="softfsuzaku4endfield" x="-40%" y="-40%" width="180%" height="180%">
  <feGaussianBlur stdDeviation="7"/>
</filter>
<filter id="fzf" x="-60%" y="-60%" width="220%" height="220%"><feGaussianBlur stdDeviation="5"/></filter>
<clipPath id="clipfsuzaku4endfield"><rect x="54" y="41" width="232" height="518" rx="37"/></clipPath>
</defs>
<ellipse cx="170" cy="577" rx="116" ry="13" fill="#000000" opacity="0.4" filter="url(#softfsuzaku4endfield)"/>
<rect x="43" y="30" width="254" height="540" rx="47" fill="url(#framefsuzaku4endfield)"/>
<rect x="48" y="35" width="244" height="530" rx="42" fill="#06060a"/>
<rect x="54" y="41" width="232" height="518" rx="37" fill="url(#scrfsuzaku4endfield)"/>
<g clip-path="url(#clipfsuzaku4endfield)">
<ellipse cx="170" cy="210" rx="180" ry="200" fill="url(#flarefsuzaku4endfield)"/>

<path d="M64 96 l16 0 -10 14 -16 0 z" fill="#ff7a1a" opacity="0.9"/><path d="M94 96 l16 0 -10 14 -16 0 z" fill="#ff7a1a" opacity="0.35"/><path d="M124 96 l16 0 -10 14 -16 0 z" fill="#ff7a1a" opacity="0.9"/><path d="M154 96 l16 0 -10 14 -16 0 z" fill="#ff7a1a" opacity="0.35"/><path d="M184 96 l16 0 -10 14 -16 0 z" fill="#ff7a1a" opacity="0.9"/><path d="M214 96 l16 0 -10 14 -16 0 z" fill="#ff7a1a" opacity="0.35"/><path d="M244 96 l16 0 -10 14 -16 0 z" fill="#ff7a1a" opacity="0.9"/><path d="M274 96 l16 0 -10 14 -16 0 z" fill="#ff7a1a" opacity="0.35"/>
<path d="M62 118 H278" stroke="#ff7a1a" stroke-opacity="0.4" stroke-width="1"/>
<text x="66" y="176" font-family="monospace" font-size="11" fill="#ffb066" opacity="0.95">&gt; SYSTEM CHECK</text><text x="274" y="176" font-family="monospace" font-size="11" fill="#7ee787" opacity="0.95" text-anchor="end">[OK]</text><text x="66" y="206" font-family="monospace" font-size="11" fill="#ffb066" opacity="0.8">&gt; POWER CELL 8200mAh</text><text x="274" y="206" font-family="monospace" font-size="11" fill="#7ee787" opacity="0.8" text-anchor="end">[OK]</text><text x="66" y="236" font-family="monospace" font-size="11" fill="#ffb066" opacity="0.65">&gt; IP68 / MIL-STD-810H</text><text x="274" y="236" font-family="monospace" font-size="11" fill="#7ee787" opacity="0.65" text-anchor="end">[OK]</text><text x="66" y="266" font-family="monospace" font-size="11" fill="#ffb066" opacity="0.5">&gt; SUSTAIN MODE</text><text x="274" y="266" font-family="monospace" font-size="11" fill="#7ee787" opacity="0.5" text-anchor="end">[READY]</text>
<rect x="66" y="306" width="208" height="10" rx="3" fill="#241c14"/>
<rect x="66" y="306" width="152" height="10" rx="3" fill="#ff7a1a" opacity="0.85"/>
<text x="66" y="336" font-family="monospace" font-size="10" fill="#c9b8a4">UPTIME 73%</text>
<rect x="66" y="360" width="9" height="14" fill="#ff7a1a"/>
<text x="170" y="418" font-family="'Noto Sans JP',sans-serif" font-size="13" font-weight="800" fill="#ead9c4" text-anchor="middle" letter-spacing="4">TERMINAL HUD</text>
<rect x="106" y="452" width="128" height="30" rx="15" fill="none" stroke="#ff7a1a" stroke-opacity="0.7" stroke-width="1.4"/>
<text x="170" y="471.5" font-family="'Noto Sans JP',sans-serif" font-size="10" font-weight="700" fill="#ff7a1a" text-anchor="middle" letter-spacing="2">開拓 Edition</text>

<text x="70" y="72" font-family="'Noto Sans JP',sans-serif" font-size="11" font-weight="700" fill="#e6e6ee">12:34</text>
<rect x="222" y="70.0" width="3.5" height="5.0" rx="1" fill="#c9c9d6" opacity="0.55"/><rect x="228" y="67.5" width="3.5" height="7.5" rx="1" fill="#c9c9d6" opacity="0.7000000000000001"/><rect x="234" y="65.0" width="3.5" height="10.0" rx="1" fill="#c9c9d6" opacity="0.8500000000000001"/>
<rect x="248" y="61.5" width="20" height="10" rx="3" fill="none" stroke="#c9c9d6" stroke-width="1.3"/>
<rect x="250" y="63.5" width="13" height="6" rx="1.5" fill="#ff7a1a"/>
<rect x="268.6" y="64" width="2.4" height="5" rx="1" fill="#c9c9d6"/>

<rect x="125" y="544" width="90" height="4.5" rx="2.25" fill="#ffffff" opacity="0.55"/>
<path d="M54 41 L206 41 L84 559 L54 559 Z" fill="#ffffff" opacity="0.035"/>
</g>
<rect x="54.8" y="41.8" width="230.4" height="516.4" rx="36.4" fill="none" stroke="#ffffff" stroke-opacity="0.08" stroke-width="1.4"/>
<rect x="292.5" y="140" width="5" height="46" rx="2.5" fill="#372407"/>
<rect x="292.5" y="200" width="5" height="70" rx="2.5" fill="#372407"/>
</svg>