<svg xmlns="http://www.w3.org/2000/svg" viewBox="0 0 340 600" role="img" aria-label="SUZAKU 4 正面">
<defs>
<linearGradient id="framefsuzaku4" x1="0" y1="0" x2="0" y2="1">
  <stop offset="0" stop-color="#96969a"/>
  <stop offset="0.12" stop-color="#13131a"/>
  <stop offset="0.5" stop-color="#09090c"/>
  <stop offset="0.88" stop-color="#121218"/>
  <stop offset="1" stop-color="#68686d"/>
</linearGradient>
<linearGradient id="scrfsuzaku4" x1="0" y1="0" x2="0.8" y2="1">
  <stop offset="0" stop-color="#171722"/>
  <stop offset="0.5" stop-color="#0d0d14"/>
  <stop offset="1" stop-color="#07070c"/>
</linearGradient>
<radialGradient id="flarefsuzaku4" cx="0.5" cy="0.32" r="0.85">
  <stop offset="0" stop-color="#e8442e" stop-opacity="0.3"/>
  <stop offset="0.55" stop-color="#e8442e" stop-opacity="0.09"/>
  <stop offset="1" stop-color="#e8442e" stop-opacity="0"/>
</radialGradient>
<filter id="softfsuzaku4" x="-40%" y="-40%" width="180%" height="180%">
  <feGaussianBlur stdDeviation="7"/>
</filter>
<filter id="fzf" x="-60%" y="-60%" width="220%" height="220%"><feGaussianBlur stdDeviation="5"/></filter>
<clipPath id="clipfsuzaku4"><rect x="54" y="41" width="232" height="518" rx="37"/></clipPath>
</defs>
<ellipse cx="170" cy="577" rx="116" ry="13" fill="#000000" opacity="0.4" filter="url(#softfsuzaku4)"/>
<rect x="43" y="30" width="254" height="540" rx="47" fill="url(#framefsuzaku4)"/>
<rect x="48" y="35" width="244" height="530" rx="42" fill="#06060a"/>
<rect x="54" y="41" width="232" height="518" rx="37" fill="url(#scrfsuzaku4)"/>
<g clip-path="url(#clipfsuzaku4)">
<ellipse cx="170" cy="210" rx="180" ry="200" fill="url(#flarefsuzaku4)"/>

<text x="170" y="118" font-family="'Noto Sans JP',sans-serif" font-size="10" fill="#9c9cb0" text-anchor="middle" letter-spacing="6">GAME SPACE</text>
<circle cx="170" cy="240" r="66" fill="none" stroke="#ffffff" stroke-opacity="0.08" stroke-width="9"/>
<circle cx="170" cy="240" r="66" fill="none" stroke="#e8442e" stroke-width="9" stroke-linecap="round"
  stroke-dasharray="332 415" transform="rotate(-90 170 240)"/>
<text x="170" y="252" font-family="'Noto Sans JP',sans-serif" font-size="46" font-weight="900" fill="#ffffff" text-anchor="middle">175</text>
<text x="170" y="278" font-family="'Noto Sans JP',sans-serif" font-size="10" fill="#e8442e" text-anchor="middle" letter-spacing="5">FPS</text>
<text x="170" y="344" font-family="'Noto Sans JP',sans-serif" font-size="9" fill="#9c9cb0" text-anchor="middle" letter-spacing="3">フレーム安定率 99.4%</text>
<text x="70" y="392" font-family="'Noto Sans JP',sans-serif" font-size="10" font-weight="700" fill="#9c9cb0">GPU</text><rect x="104" y="384" width="166" height="9" rx="3" fill="#ffffff" opacity="0.08"/><rect x="104" y="384" width="136" height="9" rx="3" fill="#e8442e" opacity="0.95"/><text x="70" y="426" font-family="'Noto Sans JP',sans-serif" font-size="10" font-weight="700" fill="#9c9cb0">CPU</text><rect x="104" y="418" width="166" height="9" rx="3" fill="#ffffff" opacity="0.08"/><rect x="104" y="418" width="106" height="9" rx="3" fill="#e8442e" opacity="0.77"/><text x="70" y="460" font-family="'Noto Sans JP',sans-serif" font-size="10" font-weight="700" fill="#9c9cb0">温度</text><rect x="104" y="452" width="166" height="9" rx="3" fill="#ffffff" opacity="0.08"/><rect x="104" y="452" width="63" height="9" rx="3" fill="#e8442e" opacity="0.59"/>
<rect x="70" y="486" width="96" height="26" rx="13" fill="#ffffff" opacity="0.07"/>
<text x="118" y="503" font-family="'Noto Sans JP',sans-serif" font-size="9" font-weight="700" fill="#ececf2" text-anchor="middle" letter-spacing="1">Lトリガー ON</text>
<rect x="174" y="486" width="96" height="26" rx="13" fill="#ffffff" opacity="0.07"/>
<text x="222" y="503" font-family="'Noto Sans JP',sans-serif" font-size="9" font-weight="700" fill="#ececf2" text-anchor="middle" letter-spacing="1">Rトリガー ON</text>

<text x="70" y="72" font-family="'Noto Sans JP',sans-serif" font-size="11" font-weight="700" fill="#e6e6ee">12:34</text>
<rect x="222" y="70.0" width="3.5" height="5.0" rx="1" fill="#c9c9d6" opacity="0.55"/><rect x="228" y="67.5" width="3.5" height="7.5" rx="1" fill="#c9c9d6" opacity="0.7000000000000001"/><rect x="234" y="65.0" width="3.5" height="10.0" rx="1" fill="#c9c9d6" opacity="0.8500000000000001"/>
<rect x="248" y="61.5" width="20" height="10" rx="3" fill="none" stroke="#c9c9d6" stroke-width="1.3"/>
<rect x="250" y="63.5" width="13" height="6" rx="1.5" fill="#e8442e"/>
<rect x="268.6" y="64" width="2.4" height="5" rx="1" fill="#c9c9d6"/>

<rect x="125" y="544" width="90" height="4.5" rx="2.25" fill="#ffffff" opacity="0.55"/>
<path d="M54 41 L206 41 L84 559 L54 559 Z" fill="#ffffff" opacity="0.035"/>
</g>
<rect x="54.8" y="41.8" width="230.4" height="516.4" rx="36.4" fill="none" stroke="#ffffff" stroke-opacity="0.08" stroke-width="1.4"/>
<rect x="292.5" y="140" width="5" height="46" rx="2.5" fill="#09090c"/>
<rect x="292.5" y="200" width="5" height="70" rx="2.5" fill="#09090c"/>
</svg>