<svg xmlns="http://www.w3.org/2000/svg" viewBox="0 0 360 640" role="img" aria-label="SUZAKU 4">
<defs>
<linearGradient id="scrsuzaku41" x1="0" y1="0" x2="1" y2="1">
  <stop offset="0" stop-color="#1b1b26"/>
  <stop offset="0.45" stop-color="#e8442e" stop-opacity="0.55"/>
  <stop offset="1" stop-color="#07070b"/>
</linearGradient>
<radialGradient id="flaresuzaku41" cx="0.5" cy="0.35" r="0.75">
  <stop offset="0" stop-color="#e8442e" stop-opacity="0.9"/>
  <stop offset="0.5" stop-color="#e8442e" stop-opacity="0.25"/>
  <stop offset="1" stop-color="#e8442e" stop-opacity="0"/>
</radialGradient>
<linearGradient id="metalsuzaku41" x1="0" y1="0" x2="0" y2="1">
  <stop offset="0" stop-color="#ffffff" stop-opacity="0.22"/>
  <stop offset="0.5" stop-color="#ffffff" stop-opacity="0.04"/>
  <stop offset="1" stop-color="#000000" stop-opacity="0.25"/>
</linearGradient>
</defs>
<rect x="70" y="20" width="220" height="600" rx="38" fill="#8e2418"/>
<rect x="70" y="20" width="220" height="600" rx="38" fill="url(#metalsuzaku41)"/>
<rect x="70.8" y="20.8" width="218.4" height="598.4" rx="37.2" fill="none" stroke="#e8442e" stroke-opacity="0.55" stroke-width="1.6"/>
<rect x="80" y="30" width="200" height="580" rx="30" fill="url(#scrsuzaku41)"/>
<ellipse cx="180" cy="240" rx="150" ry="170" fill="url(#flaresuzaku41)"/>
<path d="M180 150 c-10 42 -52 60 -52 104 a52 52 0 0 0 104 0 c0 -44 -42 -62 -52 -104z" fill="none" stroke="#e8442e" stroke-width="5" stroke-linejoin="round" opacity="0.95"/>
<circle cx="180" cy="262" r="13" fill="#e8442e"/>
<text x="180" y="352" font-family="'Noto Sans JP',sans-serif" font-size="26" font-weight="800" fill="#f4f4f8" text-anchor="middle" letter-spacing="2">SUZAKU 4</text>
<text x="180" y="378" font-family="'Noto Sans JP',sans-serif" font-size="13" fill="#9c9cb0" text-anchor="middle" letter-spacing="4">朱雀 4</text>
<rect x="140" y="596" width="80" height="4" rx="2" fill="#ffffff" opacity="0.35"/>
<rect x="292" y="150" width="5" height="52" rx="2.5" fill="#e8442e"/>
<rect x="292" y="220" width="5" height="52" rx="2.5" fill="#e8442e"/>
<rect x="63" y="180" width="5" height="70" rx="2.5" fill="#3d3d4e"/>
</svg>