<svg xmlns="http://www.w3.org/2000/svg" viewBox="0 0 640 480" role="img" aria-label="TSUBAME Pad 正面">
<defs>
<linearGradient id="frameftpad" x1="0" y1="0" x2="0" y2="1">
  <stop offset="0" stop-color="#f5f4f1"/>
  <stop offset="0.12" stop-color="#c5c4be"/>
  <stop offset="0.5" stop-color="#5d5c59"/>
  <stop offset="0.88" stop-color="#bab8b2"/>
  <stop offset="1" stop-color="#f0efea"/>
</linearGradient>
<linearGradient id="scrftpad" x1="0" y1="0" x2="0.8" y2="1">
  <stop offset="0" stop-color="#171722"/>
  <stop offset="0.5" stop-color="#0d0d14"/>
  <stop offset="1" stop-color="#07070c"/>
</linearGradient>
<radialGradient id="flareftpad" cx="0.5" cy="0.35" r="0.85">
  <stop offset="0" stop-color="#3d8bff" stop-opacity="0.28"/>
  <stop offset="0.55" stop-color="#3d8bff" stop-opacity="0.08"/>
  <stop offset="1" stop-color="#3d8bff" stop-opacity="0"/>
</radialGradient>
<filter id="softftpad" x="-40%" y="-40%" width="180%" height="180%">
  <feGaussianBlur stdDeviation="7"/>
</filter>
<clipPath id="clipftpad"><rect x="58" y="44" width="524" height="388" rx="22"/></clipPath>
</defs>
<ellipse cx="320" cy="459" rx="216" ry="11" fill="#000000" opacity="0.4" filter="url(#softftpad)"/>
<rect x="36" y="22" width="568" height="428" rx="35" fill="url(#frameftpad)"/>
<rect x="42" y="28" width="556" height="416" rx="30" fill="#06060a"/>
<rect x="58" y="44" width="524" height="388" rx="22" fill="url(#scrftpad)"/>
<g clip-path="url(#clipftpad)">
<ellipse cx="320" cy="200" rx="300" ry="180" fill="url(#flareftpad)"/>

<rect x="86" y="120" width="250" height="150" rx="16" fill="#ffffff" opacity="0.07"/>
<rect x="86" y="120" width="250" height="150" rx="16" fill="#3d8bff" opacity="0.08"/>
<path d="M196 178 l32 17 -32 17z" fill="#ffffff" opacity="0.9"/>
<rect x="102" y="242" width="150" height="5" rx="2.5" fill="#ffffff" opacity="0.16"/>
<rect x="102" y="242" width="96" height="5" rx="2.5" fill="#3d8bff" opacity="0.9"/>
<text x="86" y="298" font-family="'Noto Sans JP',sans-serif" font-size="11" font-weight="700" fill="#ececf2">ドキュメンタリー「朱雀の設計室」</text>
<text x="86" y="318" font-family="'Noto Sans JP',sans-serif" font-size="9" fill="#9c9cb0">42:10 / 65:00 ・ 燐光ディスプレイで再生中</text>
<rect x="368" y="120" width="192" height="120" rx="16" fill="#ffffff" opacity="0.06"/>
<path d="M388 148 h44 v64 l-22 -12 -22 12 z" fill="none" stroke="#3d8bff" stroke-width="2.2"/>
<text x="448" y="168" font-family="'Noto Sans JP',sans-serif" font-size="10.5" font-weight="700" fill="#ececf2">続きから読む</text>
<text x="448" y="186" font-family="'Noto Sans JP',sans-serif" font-size="8.5" fill="#9c9cb0">「熱設計の教科書」</text>
<text x="448" y="202" font-family="'Noto Sans JP',sans-serif" font-size="8.5" fill="#9c9cb0">第4章 ・ 62%</text>
<rect x="368" y="258" width="192" height="70" rx="16" fill="#ffffff" opacity="0.05"/>
<text x="384" y="286" font-family="'Noto Sans JP',sans-serif" font-size="10" font-weight="700" fill="#ececf2">メモ 3件</text>
<text x="384" y="304" font-family="'Noto Sans JP',sans-serif" font-size="8.5" fill="#9c9cb0">キーボード接続中 ・ ポゴピン</text>
<text x="78" y="74" font-family="'Noto Sans JP',sans-serif" font-size="11" font-weight="700" fill="#e6e6ee">12:34</text>
<rect x="536" y="63.5" width="20" height="10" rx="3" fill="none" stroke="#c9c9d6" stroke-width="1.3"/>
<rect x="538" y="65.5" width="13" height="6" rx="1.5" fill="#3d8bff"/>
<rect x="556.6" y="66" width="2.4" height="5" rx="1" fill="#c9c9d6"/>
<rect x="275" y="418" width="90" height="4.5" rx="2.25" fill="#ffffff" opacity="0.5"/>
<path d="M58 44 L300 44 L120 432 L58 432 Z" fill="#ffffff" opacity="0.035"/>
</g>
<rect x="58.8" y="44.8" width="522.4" height="386.4" rx="21.4" fill="none" stroke="#ffffff" stroke-opacity="0.08" stroke-width="1.4"/>
<circle cx="320" cy="36" r="4" fill="#04040a" stroke="#2a2a36" stroke-width="1.2"/>
</svg>